<svg data-v-423bf9ae="" xmlns="http://www.w3.org/2000/svg" viewBox="0 0 369.9110026569877 60" class="font"><!----><!----><!----><g data-v-423bf9ae="" id="ad2936db-33fc-4e58-966d-646abf561206" fill="black" transform="matrix(5.934718302425701,0,0,5.934718302425701,-1.8991056207707402,-23.264096675128982)"><path d="M0.36 13.82L3.71 13.82L3.71 13.29L2.95 13.22C2.56 13.19 2.41 12.96 2.37 12.47C2.31 11.97 2.30 11.42 2.30 10.29L2.30 5.52L2.34 5.52L5.35 13.57L6.19 13.57L9.11 5.52L9.16 5.52L9.16 12.46C9.16 13.17 9.04 13.24 8.05 13.29L8.05 13.82L12.39 13.82L12.39 13.29C11.40 13.24 11.28 13.17 11.28 12.46L11.28 5.49C11.28 4.77 11.40 4.70 12.39 4.66L12.39 4.13L8.75 4.13C8.51 4.80 8.04 6.17 7.66 7.21L6.47 10.49L6.43 10.49L4.76 6.19C4.52 5.56 4.20 4.73 4.02 4.13L0.32 4.13L0.32 4.66C1.32 4.70 1.43 4.77 1.43 5.49L1.43 10.29C1.43 11.44 1.41 11.98 1.36 12.47C1.32 12.96 1.18 13.17 0.85 13.22L0.36 13.29ZM14.63 12.56C14.43 13.12 14.25 13.26 13.50 13.29L13.50 13.82L16.77 13.82L16.77 13.29L15.93 13.22C15.78 13.20 15.57 13.06 15.68 12.71L17.71 6.08L17.75 6.08L19.80 12.70C19.89 13.03 19.88 13.17 19.56 13.20L18.75 13.29L18.75 13.82L23.17 13.82L23.17 13.29C22.50 13.29 22.25 13.12 22.08 12.61L19.32 4.13L17.56 4.13ZM24.14 13.82L28.59 13.82L28.59 13.29C27.59 13.24 27.48 13.17 27.48 12.46L27.48 9.07L27.51 9.07C28.24 10.44 28.74 11.17 29.43 12.15C30.37 13.47 31.02 13.82 32.79 13.87L33.74 13.90L33.74 13.37L33.60 13.33C33.31 13.26 32.98 12.98 32.59 12.53C31.40 11.17 30.06 9.24 29.29 7.95C30.37 6.82 31.11 5.95 32.10 5.21C32.59 4.84 32.86 4.70 33.71 4.63L33.71 4.13L29.90 4.13L29.90 4.63L30.49 4.72C30.72 4.75 30.76 4.89 30.58 5.11C30.21 5.57 29.67 6.29 28.95 7.10L27.48 8.79L27.48 5.49C27.48 4.77 27.59 4.70 28.59 4.66L28.59 4.13L24.14 4.13L24.14 4.66C25.13 4.70 25.24 4.77 25.24 5.49L25.24 12.46C25.24 13.17 25.13 13.24 24.14 13.29ZM33.98 4.66C34.93 4.70 35.04 4.77 35.04 5.49L35.04 10.67C35.04 13.09 36.27 14.03 39.07 14.03C41.66 14.03 43.08 13.09 43.11 10.67L43.11 5.49C43.11 4.77 43.22 4.70 44.17 4.66L44.17 4.13L39.80 4.13L39.80 4.66C40.75 4.70 40.87 4.77 40.87 5.49L40.87 10.86C40.87 12.46 40.36 13.38 39.07 13.38C37.81 13.38 37.28 12.46 37.28 10.86L37.28 5.49C37.28 4.77 37.39 4.70 38.35 4.66L38.35 4.13L33.98 4.13ZM45.16 10.65L45.37 13.16C46.09 13.82 47.47 14.03 48.40 14.03C51.20 14 52.04 12.49 52.04 11.03C52.04 9.18 50.67 8.47 49.39 7.94C48.47 7.56 47.31 7.06 47.31 5.99C47.31 5.12 47.92 4.56 48.76 4.56C49.66 4.56 50.50 5.19 50.89 6.83L51.39 6.83L51.39 4.54C50.67 4.09 49.63 3.92 48.78 3.92C46.42 3.92 45.29 5.14 45.29 6.79C45.29 8.53 46.84 9.28 48.08 9.80C49.35 10.33 49.94 10.96 49.94 11.86C49.92 12.89 49.25 13.38 48.34 13.38C47.28 13.38 46.21 12.40 45.68 10.65ZM62.65 13.82L58.45 4.12L57.01 4.12L53.05 13.82ZM59.79 12.77L54.54 12.77L57.11 6.48Z"></path></g><!----><!----></svg>